<?xml version="1.0" encoding="utf-8"?>
<!-- Generator: Adobe Illustrator 26.3.1, SVG Export Plug-In . SVG Version: 6.00 Build 0)  -->
<svg version="1.1" id="Layer_1" xmlns="http://www.w3.org/2000/svg" xmlns:xlink="http://www.w3.org/1999/xlink" x="0px" y="0px"
	 viewBox="0 0 536 261" style="enable-background:new 0 0 536 261;" xml:space="preserve">
<style type="text/css">
	.st0{fill:#234093;}
</style>
<path class="st0" d="M198.4,0C371.3,0,522,58.1,535,129.8c5.1,28.2-11.8,54.3-44.8,75.6c11.6-12.2,17.5-26.2,16.6-41.8
	c-3.7-67.6-119-136-291.6-156.1c-28.9-3.4-56.6-4.9-82.7-4.6C153.6,1,175.6,0,198.4,0z"/>
<path class="st0" d="M355,77.4c-0.4,0-0.8,0-1.2,0c-10,0-16.5,0-17.6,12.7c-0.3,4.7-4.3,4-5.7-0.7c-3.6-12.1-11.3-12.1-24-12
	c-1.1,0-2.2,0-3.4,0h-6.8c-14.4,0-17.9,7.6-15.6,20.8c0,0,0.1,0.8,0.5,2.6c0.4,2.6,2.9,4.1,6.5,4.1c6.3,0,8,2.3,9.1,8.1l11.4,64.3
	c0.6,2.4,2.9,4.3,5.4,4.3h17.2c11.6,0,17-2.7,14.9-14.8l-7.1-40.2c-2.4-13.4,3.9-21.7,13.5-21.7h4.9c12.5,0,18.9,5.6,21.2,19
	l1.8,10.5c2,11.4,0.1,18.6-14.6,18.6h-5.9c-2.5,0-4.2,2.1-3.8,4.6l0.3,1.6c3,17,10.7,22.1,28.2,22.1h4c23,0,38.3-12.5,33-42.7
	l-2.9-16.5c-6.3-35.8-27.1-44.8-49.3-44.8H355z"/>
<path class="st0" d="M192.1,77.4c-10.3,0-10.3,6.9-6.1,12.5c1.6,2.1,10.8,14.4,10.8,14.4c0.4,0.5,0.9,0.8,1.4,0.8h29.8
	c2.6,0,4.8,0.9,5.9,2.5c1.2,1.6,1.4,3.7,0.4,6c-0.2,0.4-5.9,14.8-5.9,14.8c-0.2,0.5-0.1,1.1,0.3,1.5c0,0,10.8,14.4,11.2,14.8
	c1.7,2.3,2.3,4.4,1.7,6c-0.6,1.6-2.4,2.5-5.1,2.5h-24.3c-0.6,0-1,0.3-1.2,0.8c0,0-5.3,13.4-6.1,15.4c-2.2,5.6,0.3,12.5,10.6,12.5
	h26.3c29.6,0,43.8-16.4,37.8-50l-0.8-4.7c-6.9-39.2-32.1-49.8-55.6-49.8H192.1z"/>
<path class="st0" d="M83.5,77.4c-14.3,0-17.9,7.6-15.6,20.8l0.5,2.6c0.7,2.3,3,4.2,5.4,4.2h27.1c14.3,0,19.8,7,21.8,18.2l1.9,11
	c1.9,11,1.6,19.1-13,19.1H82.4c-2.6,0-4.3,2.1-3.8,4.6l0.8,4.3c2.7,15,10.9,19.7,25.2,19.7h78.7c10.3,0,10.3-6.7,6.1-12.5
	c-0.6-0.8-11.7-15.4-11.7-15.4c-0.4-0.5-0.9-0.8-1.4-0.8h-17.6c-2.6,0-4.7-0.9-5.9-2.5c-1.2-1.6-1.4-3.7-0.4-6
	c0.1-0.2,0.7-1.7,1.5-3.8l0,0c1.5-3.8,3.8-9.4,4.4-11.1c0.1-0.2,0.1-0.5,0.1-0.7l0,0c-0.1-0.3-0.1-0.5-0.3-0.7
	c-1.9-2.5-11.4-15-11.8-15.6c-1.7-2.3-1.7-3.7-1.1-5.3s2.4-2.5,5.1-2.5h19.6c0.7,0,1.1-0.6,0.8-1.2c-6.2-15.4-20.5-26.4-42-26.4
	L83.5,77.4L83.5,77.4z"/>
<path class="st0" d="M16.3,77.4C1.9,77.4-1.7,85,0.7,98.2l0.5,2.6c0.7,2.3,3,4.2,5.4,4.2h4.5c5.8,0,6.9,2.2,7.8,7.4l2.6,14.7
	l0.4,2.9c2.1,12.1,8.8,16.6,21.1,16.6h14.7c2.5,0,4.3-2.1,3.8-4.6l-2.5-15.3l-4.5-25.3c-2.6-15-10.3-24-27.3-24L16.3,77.4L16.3,77.4
	z"/>
<path class="st0" d="M65.7,227.1l0-0.7H44.4l-0.4-6.6h-7.8l0.9,13.2h18.7l-8.3,26.5l0,0.3h8.3L65.7,227.1z"/>
<path class="st0" d="M73.4,259.7h7.8l-2.3-33.4h-7.8L73.4,259.7z"/>
<path class="st0" d="M114.4,243.1c0.7,10.5-5.4,17.2-15.7,17.2c-4.5,0-8.2-1.2-11.7-3.4l2-5.4c2.4,1.2,5.1,2.4,8.2,2.4
	c6.3,0,9.8-4.3,9.3-10.8c-0.4-6.5-4.5-10.9-10.8-10.9c-3.1,0-5.7,1.2-7.9,2.4l-2.8-5.4c3.2-2.2,6.8-3.4,11.2-3.4
	C106.7,225.8,113.7,232.5,114.4,243.1L114.4,243.1z"/>
<path class="st0" d="M133.4,226.4h-13.9l0.5,6.6h13.9c6.6,0,9.6,3.2,10.1,10.9l1.1,15.9h7.8l-1.1-15.9
	C150.9,231.7,145.2,226.4,133.4,226.4z"/>
<path class="st0" d="M128.5,241.2L128.5,241.2L128.5,241.2L128.5,241.2z"/>
<path class="st0" d="M128.5,241.2l1.3,18.5H122l-1.2-17.5L128.5,241.2z"/>
<path class="st0" d="M170.6,226.4h13.9c11.8,0,17.5,5.3,18.4,17.5l1.1,15.9h-7.8l-1.1-15.9c-0.5-7.7-3.5-10.9-10.1-10.9h-13.9
	L170.6,226.4z"/>
<path class="st0" d="M179.7,241.2L179.7,241.2l-7.7,1.1l1.2,17.5h7.8L179.7,241.2L179.7,241.2L179.7,241.2z"/>
<path class="st0" d="M215.8,259.7h8.3c-8.9-20-7.1-26.8,2.7-26.8l-0.5-6.6h-20.1l0.5,6.6h9.3C209.6,235.8,209.4,244.4,215.8,259.7z"
	/>
<path class="st0" d="M280.4,242.7l1.2,17h-7.8l-1.2-17c-0.5-6.6-3.3-9.7-9.9-9.7h-5.6l1.3,18.5c0.4,6-2.9,8.6-7.4,8.6
	c-2.2,0-5.5-0.4-7.2-1l0.6-6.2c1,0.3,2.1,0.6,3.6,0.6c2.1,0,2.8-1.2,2.6-4.2l-1.1-16.2h-4.3l-0.5-6.6h17.7
	C274.3,226.4,279.5,231,280.4,242.7L280.4,242.7z"/>
<path class="st0" d="M289.3,259.7h7.8l-2.3-33.4H287L289.3,259.7z"/>
<path class="st0" d="M329,259.7L315,243.1c-3.2,2.3-4.4,7.1-3.5,16.7h-7.8c-1.2-12.8,1.3-18.8,7-21.9l-9.3-11.2l0-0.3h8.6l13.9,16.7
	c3.2-2.3,4.4-7.1,3.5-16.7h7.8c1.2,12.9-1.3,18.8-7,21.9l9.3,11.2l0,0.3H329z"/>
<path class="st0" d="M350.6,245.2l-1.3-18.9v0h-7.8l1.4,20.1L350.6,245.2z"/>
<path class="st0" d="M385.2,259.7L385.2,259.7l-1.2-17.2c-0.8-11.6-7.7-16.6-16.6-16.6c-4.2,0-8.6,0.9-13.1,3.5l2.9,5.6
	c2.7-1.5,5.8-2.7,9.3-2.7c5.9,0,9.5,3.7,10,10.6l1.2,16.9H385.2L385.2,259.7L385.2,259.7z"/>
<path class="st0" d="M390.8,253.1l0.5,6.6v0h32.1l-0.5-6.6h-4.2l-0.8-11c-0.7-10.6-5.6-16.5-16.4-16.5c-4.6,0-9.1,1.2-13.3,3.7
	l3,5.8c2.7-1.6,5.9-2.9,9.5-2.9c5.7,0,8.9,4.1,9.4,10.4l0.7,10.4H390.8z"/>
</svg>
